<mxfile host="app.diagrams.net" modified="2021-03-21T15:32:04.865Z" agent="5.0 (Windows)" etag="WUpRey0jI5yxP_HEY2hZ" version="14.4.9" type="github">
  <diagram id="R2lEEEUBdFMjLlhIrx00" name="Page-1">
    <mxGraphModel dx="1038" dy="547" grid="1" gridSize="10" guides="1" tooltips="1" connect="1" arrows="1" fold="1" page="1" pageScale="1" pageWidth="850" pageHeight="1100" math="0" shadow="0" extFonts="Permanent Marker^https://fonts.googleapis.com/css?family=Permanent+Marker">
      <root>
        <mxCell id="0" />
        <mxCell id="1" parent="0" />
        <mxCell id="duG1KUQLpDS7PBp-qmxF-61" value="UCZNIOWIE" style="rounded=0;whiteSpace=wrap;html=1;" vertex="1" parent="1">
          <mxGeometry x="460" y="280" width="120" height="60" as="geometry" />
        </mxCell>
        <mxCell id="duG1KUQLpDS7PBp-qmxF-64" value="KLASY" style="rounded=0;whiteSpace=wrap;html=1;" vertex="1" parent="1">
          <mxGeometry x="160" y="280" width="120" height="60" as="geometry" />
        </mxCell>
        <mxCell id="duG1KUQLpDS7PBp-qmxF-66" value="składają się z" style="html=1;whiteSpace=wrap;aspect=fixed;shape=isoRectangle;" vertex="1" parent="1">
          <mxGeometry x="327" y="281" width="98.33" height="59" as="geometry" />
        </mxCell>
        <mxCell id="duG1KUQLpDS7PBp-qmxF-67" value="NAUCZYCIELE" style="rounded=0;whiteSpace=wrap;html=1;" vertex="1" parent="1">
          <mxGeometry x="160" y="90" width="120" height="60" as="geometry" />
        </mxCell>
        <mxCell id="duG1KUQLpDS7PBp-qmxF-68" value="PRZEDMIOT" style="rounded=1;whiteSpace=wrap;html=1;" vertex="1" parent="1">
          <mxGeometry x="290" y="30" width="80" height="40" as="geometry" />
        </mxCell>
        <mxCell id="duG1KUQLpDS7PBp-qmxF-69" value="IMIĘ" style="rounded=1;whiteSpace=wrap;html=1;" vertex="1" parent="1">
          <mxGeometry x="60" y="30" width="70" height="40" as="geometry" />
        </mxCell>
        <mxCell id="duG1KUQLpDS7PBp-qmxF-70" value="NAZWISKO" style="rounded=1;whiteSpace=wrap;html=1;" vertex="1" parent="1">
          <mxGeometry x="185" y="30" width="70" height="40" as="geometry" />
        </mxCell>
        <mxCell id="duG1KUQLpDS7PBp-qmxF-71" value="" style="line;strokeWidth=2;direction=south;html=1;" vertex="1" parent="1">
          <mxGeometry x="215" y="70" width="10" height="20" as="geometry" />
        </mxCell>
        <mxCell id="duG1KUQLpDS7PBp-qmxF-74" value="" style="endArrow=none;html=1;rounded=0;entryX=0.25;entryY=1;entryDx=0;entryDy=0;" edge="1" parent="1" target="duG1KUQLpDS7PBp-qmxF-68">
          <mxGeometry relative="1" as="geometry">
            <mxPoint x="255" y="89" as="sourcePoint" />
            <mxPoint x="415" y="89" as="targetPoint" />
          </mxGeometry>
        </mxCell>
        <mxCell id="duG1KUQLpDS7PBp-qmxF-75" value="" style="endArrow=none;html=1;rounded=0;" edge="1" parent="1" source="duG1KUQLpDS7PBp-qmxF-69">
          <mxGeometry relative="1" as="geometry">
            <mxPoint x="100" y="89" as="sourcePoint" />
            <mxPoint x="200" y="89" as="targetPoint" />
          </mxGeometry>
        </mxCell>
        <mxCell id="duG1KUQLpDS7PBp-qmxF-76" value="uczą" style="rhombus;whiteSpace=wrap;html=1;" vertex="1" parent="1">
          <mxGeometry x="180" y="195" width="80" height="50" as="geometry" />
        </mxCell>
        <mxCell id="duG1KUQLpDS7PBp-qmxF-77" value="ROCZNIK" style="rounded=1;whiteSpace=wrap;html=1;" vertex="1" parent="1">
          <mxGeometry x="130" y="370" width="80" height="30" as="geometry" />
        </mxCell>
        <mxCell id="duG1KUQLpDS7PBp-qmxF-78" value="ODDZIAŁ" style="rounded=1;whiteSpace=wrap;html=1;" vertex="1" parent="1">
          <mxGeometry x="230" y="370" width="80" height="30" as="geometry" />
        </mxCell>
        <mxCell id="duG1KUQLpDS7PBp-qmxF-79" value="" style="endArrow=none;html=1;rounded=0;exitX=0.25;exitY=0;exitDx=0;exitDy=0;entryX=0.25;entryY=1;entryDx=0;entryDy=0;" edge="1" parent="1" source="duG1KUQLpDS7PBp-qmxF-77" target="duG1KUQLpDS7PBp-qmxF-64">
          <mxGeometry relative="1" as="geometry">
            <mxPoint x="140" y="299" as="sourcePoint" />
            <mxPoint x="225" y="299" as="targetPoint" />
          </mxGeometry>
        </mxCell>
        <mxCell id="duG1KUQLpDS7PBp-qmxF-81" value="" style="endArrow=none;html=1;rounded=0;entryX=0.75;entryY=0;entryDx=0;entryDy=0;exitX=0.75;exitY=1;exitDx=0;exitDy=0;" edge="1" parent="1" source="duG1KUQLpDS7PBp-qmxF-64" target="duG1KUQLpDS7PBp-qmxF-78">
          <mxGeometry relative="1" as="geometry">
            <mxPoint x="240" y="300" as="sourcePoint" />
            <mxPoint x="310" y="300" as="targetPoint" />
          </mxGeometry>
        </mxCell>
        <mxCell id="duG1KUQLpDS7PBp-qmxF-82" value="IMIĘ" style="rounded=1;whiteSpace=wrap;html=1;" vertex="1" parent="1">
          <mxGeometry x="395" y="230" width="60" height="30" as="geometry" />
        </mxCell>
        <mxCell id="duG1KUQLpDS7PBp-qmxF-83" value="NAZWISKO" style="rounded=1;whiteSpace=wrap;html=1;" vertex="1" parent="1">
          <mxGeometry x="470" y="230" width="80" height="30" as="geometry" />
        </mxCell>
        <mxCell id="duG1KUQLpDS7PBp-qmxF-84" value="OCENY" style="rounded=1;whiteSpace=wrap;html=1;" vertex="1" parent="1">
          <mxGeometry x="560" y="230" width="80" height="30" as="geometry" />
        </mxCell>
        <mxCell id="duG1KUQLpDS7PBp-qmxF-92" value="" style="edgeStyle=entityRelationEdgeStyle;fontSize=12;html=1;endArrow=ERoneToMany;entryX=0.558;entryY=1;entryDx=0;entryDy=0;entryPerimeter=0;exitX=0.5;exitY=0;exitDx=0;exitDy=0;" edge="1" parent="1" source="duG1KUQLpDS7PBp-qmxF-76" target="duG1KUQLpDS7PBp-qmxF-67">
          <mxGeometry width="100" height="100" relative="1" as="geometry">
            <mxPoint x="220" y="170" as="sourcePoint" />
            <mxPoint x="320" y="70" as="targetPoint" />
          </mxGeometry>
        </mxCell>
        <mxCell id="duG1KUQLpDS7PBp-qmxF-98" value="" style="edgeStyle=entityRelationEdgeStyle;fontSize=12;html=1;endArrow=ERoneToMany;entryX=0.5;entryY=0;entryDx=0;entryDy=0;exitX=0.5;exitY=1;exitDx=0;exitDy=0;" edge="1" parent="1" source="duG1KUQLpDS7PBp-qmxF-76" target="duG1KUQLpDS7PBp-qmxF-64">
          <mxGeometry width="100" height="100" relative="1" as="geometry">
            <mxPoint x="215" y="220" as="sourcePoint" />
            <mxPoint x="315" y="120" as="targetPoint" />
          </mxGeometry>
        </mxCell>
        <mxCell id="duG1KUQLpDS7PBp-qmxF-99" value="" style="endArrow=none;html=1;rounded=0;exitX=0.5;exitY=1;exitDx=0;exitDy=0;entryX=0.25;entryY=0;entryDx=0;entryDy=0;" edge="1" parent="1" source="duG1KUQLpDS7PBp-qmxF-82" target="duG1KUQLpDS7PBp-qmxF-61">
          <mxGeometry relative="1" as="geometry">
            <mxPoint x="340" y="250" as="sourcePoint" />
            <mxPoint x="500" y="250" as="targetPoint" />
          </mxGeometry>
        </mxCell>
        <mxCell id="duG1KUQLpDS7PBp-qmxF-100" value="" style="endArrow=none;html=1;rounded=0;entryX=0.5;entryY=1;entryDx=0;entryDy=0;exitX=0.5;exitY=0;exitDx=0;exitDy=0;" edge="1" parent="1" source="duG1KUQLpDS7PBp-qmxF-61" target="duG1KUQLpDS7PBp-qmxF-83">
          <mxGeometry relative="1" as="geometry">
            <mxPoint x="340" y="250" as="sourcePoint" />
            <mxPoint x="500" y="250" as="targetPoint" />
          </mxGeometry>
        </mxCell>
        <mxCell id="duG1KUQLpDS7PBp-qmxF-101" value="" style="endArrow=none;html=1;rounded=0;entryX=0.75;entryY=0;entryDx=0;entryDy=0;exitX=0.25;exitY=1;exitDx=0;exitDy=0;" edge="1" parent="1" source="duG1KUQLpDS7PBp-qmxF-84" target="duG1KUQLpDS7PBp-qmxF-61">
          <mxGeometry relative="1" as="geometry">
            <mxPoint x="340" y="250" as="sourcePoint" />
            <mxPoint x="500" y="250" as="targetPoint" />
          </mxGeometry>
        </mxCell>
      </root>
    </mxGraphModel>
  </diagram>
</mxfile>
